<?xml version="1.0" encoding="utf-8"?>
<!-- Generator: Adobe Illustrator 26.2.0, SVG Export Plug-In . SVG Version: 6.00 Build 0)  -->
<svg version="1.1" id="a" xmlns="http://www.w3.org/2000/svg" xmlns:xlink="http://www.w3.org/1999/xlink" x="0px" y="0px"
	 viewBox="0 0 640 640" style="enable-background:new 0 0 640 640;" xml:space="preserve">
<style type="text/css">
	.st0{fill:none;}
	.st1{fill:#333333;}
	.st2{fill:#85AB70;stroke:#333333;stroke-width:10;stroke-miterlimit:10;}
	.st3{fill:#887DBA;stroke:#333333;stroke-width:10;stroke-miterlimit:10;}
</style>
<path class="st0" d="z"/>
<g>
	<path class="st1" d="M143,400c3.8-0.6,8.4-1,13.3-1c9,0,15.4,2.1,19.7,6c4.3,4,6.8,9.6,6.8,17.4s-2.5,14.4-7,18.9
		c-4.5,4.5-12,7-21.5,7c-4.5,0-8.2-0.2-11.4-0.6V400z M149.3,442.9c1.6,0.3,3.9,0.4,6.3,0.4c13.4,0,20.7-7.5,20.7-20.6
		c0.1-11.5-6.4-18.7-19.7-18.7c-3.2,0-5.7,0.3-7.3,0.6L149.3,442.9L149.3,442.9z"/>
	<path class="st1" d="M210,447.9l-0.5-4.4h-0.2c-1.9,2.7-5.7,5.2-10.7,5.2c-7.1,0-10.7-5-10.7-10c0-8.4,7.5-13,20.9-13V425
		c0-2.9-0.8-8.1-7.9-8.1c-3.2,0-6.6,1-9.1,2.6l-1.4-4.2c2.9-1.9,7.1-3.1,11.5-3.1c10.7,0,13.2,7.3,13.2,14.3v13c0,3,0.1,6,0.6,8.4
		L210,447.9L210,447.9z M209.1,430.1c-6.9-0.1-14.8,1.1-14.8,7.9c0,4.1,2.7,6,6,6c4.5,0,7.4-2.9,8.4-5.8c0.2-0.6,0.4-1.4,0.4-2
		L209.1,430.1L209.1,430.1z"/>
	<path class="st1" d="M232.8,403v10h9.1v4.8h-9.1v18.8c0,4.3,1.2,6.8,4.8,6.8c1.7,0,2.9-0.2,3.7-0.4l0.3,4.8
		c-1.2,0.5-3.2,0.9-5.6,0.9c-3,0-5.3-0.9-6.8-2.7c-1.8-1.9-2.5-5-2.5-9.1v-19h-5.4V413h5.4v-8.4L232.8,403L232.8,403z"/>
	<path class="st1" d="M268.3,447.9l-0.5-4.4h-0.2c-1.9,2.7-5.7,5.2-10.7,5.2c-7.1,0-10.7-5-10.7-10c0-8.4,7.5-13,21-13V425
		c0-2.9-0.8-8.1-7.9-8.1c-3.2,0-6.6,1-9.1,2.6l-1.4-4.2c2.9-1.9,7.1-3.1,11.5-3.1c10.7,0,13.2,7.3,13.2,14.3v13c0,3,0.1,6,0.6,8.4
		L268.3,447.9L268.3,447.9z M267.3,430.1c-6.9-0.1-14.8,1.1-14.8,7.9c0,4.1,2.7,6,6,6c4.5,0,7.4-2.9,8.4-5.8c0.2-0.6,0.4-1.4,0.4-2
		L267.3,430.1L267.3,430.1z"/>
	<path class="st1" d="M283.7,396.8h6.3v21.8h0.1c1-1.8,2.6-3.4,4.5-4.5c1.9-1.1,4.1-1.8,6.5-1.8c4.7,0,12.2,2.9,12.2,14.9v20.7H307
		v-20c0-5.6-2.1-10.4-8.1-10.4c-4.1,0-7.3,2.9-8.5,6.3c-0.4,0.9-0.4,1.8-0.4,3v21h-6.3L283.7,396.8L283.7,396.8z"/>
	<path class="st1" d="M352.8,438.4c0,3.6,0.1,6.8,0.3,9.5h-5.6l-0.4-5.7H347c-1.7,2.8-5.3,6.5-11.5,6.5c-5.5,0-12-3-12-15.3V413h6.3
		v19.3c0,6.6,2,11.1,7.8,11.1c4.2,0,7.2-3,8.3-5.8c0.4-0.9,0.6-2.1,0.6-3.2V413h6.3L352.8,438.4L352.8,438.4z"/>
	<path class="st1" d="M393.3,413c-0.1,2.5-0.3,5.3-0.3,9.6v20.2c0,8-1.6,12.9-5,15.9c-3.4,3.2-8.3,4.2-12.7,4.2s-8.8-1-11.6-2.9
		l1.6-4.8c2.3,1.4,5.9,2.7,10.2,2.7c6.5,0,11.2-3.4,11.2-12.2v-3.9h-0.1c-1.9,3.2-5.7,5.8-11.1,5.8c-8.6,0-14.8-7.3-14.8-17
		c0-11.8,7.7-18.5,15.7-18.5c6,0,9.4,3.2,10.9,6h0.1l0.3-5.3L393.3,413L393.3,413z M386.8,426.8c0-1.1-0.1-2-0.4-2.9
		c-1.2-3.7-4.2-6.7-8.9-6.7c-6,0-10.4,5.1-10.4,13.2c0,6.8,3.5,12.5,10.3,12.5c3.9,0,7.4-2.5,8.8-6.5c0.4-1.1,0.5-2.3,0.5-3.4
		L386.8,426.8L386.8,426.8z"/>
	<path class="st1" d="M433.6,413c-0.1,2.5-0.3,5.3-0.3,9.6v20.2c0,8-1.6,12.9-5,15.9c-3.4,3.2-8.3,4.2-12.7,4.2s-8.8-1-11.6-2.9
		l1.6-4.8c2.3,1.4,5.9,2.7,10.2,2.7c6.5,0,11.2-3.4,11.2-12.2v-3.9H427c-1.9,3.2-5.7,5.8-11.1,5.8c-8.6,0-14.8-7.3-14.8-17
		c0-11.8,7.7-18.5,15.7-18.5c6,0,9.4,3.2,10.9,6h0.1l0.3-5.3L433.6,413L433.6,413z M427,426.8c0-1.1-0.1-2-0.4-2.9
		c-1.2-3.7-4.2-6.7-8.9-6.7c-6,0-10.4,5.1-10.4,13.2c0,6.8,3.5,12.5,10.3,12.5c3.9,0,7.4-2.5,8.8-6.5c0.4-1.1,0.5-2.3,0.5-3.4
		L427,426.8L427,426.8z"/>
	<path class="st1" d="M447.3,431.6c0.1,8.6,5.6,12.1,12,12.1c4.5,0,7.3-0.8,9.7-1.8l1.1,4.5c-2.2,1-6,2.2-11.6,2.2
		c-10.7,0-17.1-7.1-17.1-17.6s6.2-18.8,16.3-18.8c11.4,0,14.4,10,14.4,16.4c0,1.3-0.1,2.3-0.2,3L447.3,431.6L447.3,431.6z
		 M465.9,427.1c0.1-4-1.7-10.3-8.8-10.3c-6.4,0-9.2,5.9-9.7,10.3H465.9L465.9,427.1z"/>
	<path class="st1" d="M479.9,423.9c0-4.1-0.1-7.6-0.3-10.9h5.5l0.2,6.8h0.3c1.6-4.7,5.4-7.6,9.7-7.6c0.7,0,1.2,0.1,1.8,0.2v6
		c-0.7-0.1-1.3-0.2-2.2-0.2c-4.5,0-7.6,3.4-8.5,8.1c-0.1,0.9-0.3,1.9-0.3,3v18.6h-6.3V423.9L479.9,423.9z"/>
</g>
<g>
	<path d="M123.9,490.6H119v-1.8h12v1.8H126V505h-2.1L123.9,490.6L123.9,490.6z"/>
	<path d="M132.5,487.9h2.1v7.2h0c0.3-0.6,0.9-1.1,1.5-1.5c0.6-0.4,1.4-0.6,2.2-0.6c1.6,0,4.1,1,4.1,5v6.9h-2.1v-6.7
		c0-1.9-0.7-3.5-2.7-3.5c-1.4,0-2.5,1-2.8,2.1c-0.1,0.3-0.1,0.6-0.1,1v7h-2.1L132.5,487.9L132.5,487.9z"/>
	<path d="M147,499.5c0,2.9,1.9,4,4,4c1.5,0,2.4-0.3,3.2-0.6l0.4,1.5c-0.7,0.3-2,0.7-3.9,0.7c-3.6,0-5.7-2.3-5.7-5.9s2.1-6.3,5.5-6.3
		c3.8,0,4.8,3.3,4.8,5.5c0,0.4,0,0.8-0.1,1L147,499.5L147,499.5z M153.2,498c0-1.3-0.5-3.4-2.9-3.4c-2.1,0-3.1,2-3.2,3.4H153.2
		L153.2,498z"/>
	<path d="M164.1,499.5c0,2.9,1.9,4,4,4c1.5,0,2.4-0.3,3.2-0.6l0.4,1.5c-0.7,0.3-2,0.7-3.9,0.7c-3.6,0-5.7-2.3-5.7-5.9
		s2.1-6.3,5.5-6.3c3.8,0,4.8,3.3,4.8,5.5c0,0.4,0,0.8-0.1,1L164.1,499.5L164.1,499.5z M170.3,498c0-1.3-0.5-3.4-2.9-3.4
		c-2.1,0-3.1,2-3.2,3.4H170.3L170.3,498z"/>
	<path d="M181.4,505l-0.2-1.5h-0.1c-0.6,0.9-1.9,1.7-3.5,1.7c-2.4,0-3.5-1.7-3.5-3.3c0-2.8,2.5-4.3,7-4.3v-0.2c0-1-0.3-2.7-2.6-2.7
		c-1.1,0-2.2,0.3-3,0.9l-0.5-1.4c1-0.6,2.4-1,3.8-1c3.5,0,4.4,2.4,4.4,4.8v4.3c0,1,0,2,0.2,2.8L181.4,505L181.4,505z M181.1,499
		c-2.3,0-4.9,0.4-4.9,2.6c0,1.4,0.9,2,2,2c1.5,0,2.5-1,2.8-1.9c0.1-0.2,0.1-0.5,0.1-0.7L181.1,499L181.1,499z"/>
	<path d="M186.3,502.8c0.6,0.4,1.7,0.8,2.8,0.8c1.5,0,2.3-0.8,2.3-1.7c0-1-0.6-1.6-2.2-2.1c-2.1-0.7-3.1-1.9-3.1-3.3
		c0-1.9,1.5-3.4,4-3.4c1.2,0,2.2,0.3,2.9,0.7l-0.5,1.5c-0.5-0.3-1.3-0.7-2.4-0.7c-1.2,0-1.9,0.7-1.9,1.6c0,1,0.7,1.4,2.2,2
		c2,0.8,3.1,1.8,3.1,3.5c0,2-1.6,3.5-4.3,3.5c-1.3,0-2.5-0.3-3.3-0.8L186.3,502.8L186.3,502.8z"/>
	<path d="M198.4,490.1c0,0.7-0.5,1.3-1.3,1.3c-0.7,0-1.3-0.6-1.3-1.3s0.5-1.3,1.3-1.3S198.4,489.3,198.4,490.1L198.4,490.1z
		 M196.1,505v-11.6h2.1V505H196.1z"/>
	<path d="M202.9,499.5c0,2.9,1.9,4,4,4c1.5,0,2.4-0.3,3.2-0.6l0.4,1.5c-0.7,0.3-2,0.7-3.9,0.7c-3.6,0-5.7-2.3-5.7-5.9
		s2.1-6.3,5.5-6.3c3.8,0,4.8,3.3,4.8,5.5c0,0.4,0,0.8-0.1,1L202.9,499.5L202.9,499.5z M209,498c0-1.3-0.5-3.4-2.9-3.4
		c-2.1,0-3.1,2-3.2,3.4H209z"/>
	<path d="M213.4,502.8c0.6,0.4,1.7,0.8,2.8,0.8c1.5,0,2.3-0.8,2.3-1.7c0-1-0.6-1.6-2.2-2.1c-2.1-0.7-3.1-1.9-3.1-3.3
		c0-1.9,1.5-3.4,4-3.4c1.2,0,2.2,0.3,2.9,0.7l-0.5,1.5c-0.5-0.3-1.3-0.7-2.4-0.7c-1.2,0-1.9,0.7-1.9,1.6c0,1,0.7,1.4,2.2,2
		c2,0.8,3,1.8,3,3.5c0,2-1.6,3.5-4.3,3.5c-1.3,0-2.5-0.3-3.3-0.8L213.4,502.8L213.4,502.8z"/>
	<path d="M225.8,490v3.3h3v1.6h-3v6.3c0,1.4,0.4,2.3,1.6,2.3c0.5,0,1-0.1,1.2-0.1l0.1,1.6c-0.4,0.2-1.1,0.3-1.9,0.3
		c-1,0-1.8-0.3-2.3-0.9c-0.6-0.6-0.8-1.7-0.8-3V495h-1.8v-1.6h1.8v-2.8L225.8,490L225.8,490z"/>
	<path d="M237.1,493.3l1.5,5.9c0.3,1.3,0.7,2.5,0.9,3.7h0.1c0.3-1.2,0.7-2.4,1-3.7l1.9-5.9h1.8l1.8,5.8c0.4,1.4,0.8,2.6,1,3.8h0.1
		c0.2-1.2,0.5-2.4,0.9-3.8l1.7-5.8h2.1l-3.7,11.6h-1.9l-1.8-5.5c-0.4-1.3-0.7-2.5-1-3.8h0c-0.3,1.4-0.7,2.6-1.1,3.8l-1.9,5.5h-1.9
		l-3.5-11.6L237.1,493.3L237.1,493.3z"/>
	<path d="M260.2,505l-0.2-1.5H260c-0.7,0.9-1.9,1.7-3.5,1.7c-2.3,0-3.5-1.7-3.5-3.3c0-2.8,2.5-4.3,7-4.3v-0.2c0-1-0.3-2.7-2.6-2.7
		c-1.1,0-2.2,0.3-3,0.9l-0.5-1.4c1-0.6,2.3-1,3.8-1c3.5,0,4.4,2.4,4.4,4.8v4.3c0,1,0,2,0.2,2.8L260.2,505L260.2,505z M259.9,499
		c-2.3,0-4.9,0.4-4.9,2.6c0,1.4,0.9,2,2,2c1.5,0,2.5-1,2.8-1.9c0.1-0.2,0.1-0.5,0.1-0.7V499L259.9,499z"/>
	<path d="M266,493.3l2.5,6.9c0.3,0.8,0.5,1.7,0.7,2.4h0c0.2-0.7,0.5-1.6,0.7-2.4l2.3-6.8h2.2l-3.2,8.3c-1.5,4-2.5,6-4,7.3
		c-1,0.9-2.1,1.3-2.6,1.4l-0.5-1.8c0.5-0.2,1.2-0.5,1.8-1c0.6-0.5,1.3-1.3,1.8-2.3c0.1-0.2,0.2-0.4,0.2-0.5s0-0.3-0.1-0.5l-4.3-10.7
		H266L266,493.3z"/>
	<path d="M284.1,490v3.3h3v1.6h-3v6.3c0,1.4,0.4,2.3,1.6,2.3c0.5,0,1-0.1,1.2-0.1l0.1,1.6c-0.4,0.2-1.1,0.3-1.9,0.3
		c-1,0-1.8-0.3-2.3-0.9c-0.6-0.6-0.8-1.7-0.8-3V495h-1.8v-1.6h1.8v-2.8L284.1,490L284.1,490z"/>
	<path d="M299.9,499.1c0,4.3-3,6.2-5.8,6.2c-3.1,0-5.6-2.3-5.6-6c0-3.9,2.5-6.2,5.8-6.2S299.9,495.5,299.9,499.1z M290.7,499.2
		c0,2.5,1.5,4.5,3.5,4.5s3.5-1.9,3.5-4.5c0-2-1-4.5-3.5-4.5S290.7,497,290.7,499.2L290.7,499.2z"/>
	<path d="M317.7,493.3c0,0.8-0.1,1.8-0.1,3.2v6.7c0,2.7-0.5,4.3-1.7,5.3c-1.1,1.1-2.8,1.4-4.2,1.4s-2.9-0.3-3.9-1l0.5-1.6
		c0.8,0.5,2,0.9,3.4,0.9c2.2,0,3.7-1.1,3.7-4.1v-1.3h0c-0.7,1.1-1.9,1.9-3.7,1.9c-2.9,0-4.9-2.5-4.9-5.7c0-3.9,2.6-6.2,5.2-6.2
		c2,0,3.1,1.1,3.6,2h0l0.1-1.8L317.7,493.3L317.7,493.3z M315.5,497.9c0-0.4,0-0.7-0.1-1c-0.4-1.2-1.4-2.2-3-2.2
		c-2,0-3.5,1.7-3.5,4.4c0,2.3,1.2,4.2,3.4,4.2c1.3,0,2.5-0.8,2.9-2.2c0.1-0.4,0.2-0.8,0.2-1.1L315.5,497.9L315.5,497.9z"/>
	<path d="M322.2,499.5c0,2.9,1.9,4,4,4c1.5,0,2.4-0.3,3.2-0.6l0.4,1.5c-0.7,0.3-2,0.7-3.9,0.7c-3.6,0-5.7-2.3-5.7-5.9
		s2.1-6.3,5.5-6.3c3.8,0,4.8,3.3,4.8,5.5c0,0.4,0,0.8-0.1,1L322.2,499.5L322.2,499.5z M328.4,498c0-1.3-0.5-3.4-2.9-3.4
		c-2.1,0-3.1,2-3.2,3.4H328.4z"/>
	<path d="M335.6,490v3.3h3v1.6h-3v6.3c0,1.4,0.4,2.3,1.6,2.3c0.5,0,1-0.1,1.2-0.1l0.1,1.6c-0.4,0.2-1.1,0.3-1.9,0.3
		c-1,0-1.8-0.3-2.3-0.9c-0.6-0.6-0.8-1.7-0.8-3V495h-1.8v-1.6h1.8v-2.8L335.6,490L335.6,490z"/>
	<path d="M346.3,505v-10h-1.6v-1.6h1.6v-0.5c0-1.6,0.4-3.1,1.3-4.1c0.8-0.8,1.8-1.1,2.8-1.1c0.7,0,1.4,0.2,1.8,0.3l-0.3,1.6
		c-0.3-0.1-0.7-0.3-1.3-0.3c-1.8,0-2.3,1.6-2.3,3.4v0.6h2.8v1.6h-2.8v10H346.3L346.3,505z"/>
	<path d="M353.1,497c0-1.4,0-2.5-0.1-3.6h1.8l0.1,2.3h0.1c0.5-1.6,1.8-2.5,3.2-2.5c0.2,0,0.4,0,0.6,0.1v2c-0.2,0-0.4-0.1-0.7-0.1
		c-1.5,0-2.5,1.1-2.8,2.7c0,0.3-0.1,0.6-0.1,1v6.2h-2.1L353.1,497L353.1,497z"/>
	<path d="M371.2,499.1c0,4.3-3,6.2-5.8,6.2c-3.1,0-5.6-2.3-5.6-6c0-3.9,2.5-6.2,5.8-6.2S371.2,495.5,371.2,499.1z M362,499.2
		c0,2.5,1.5,4.5,3.5,4.5s3.5-1.9,3.5-4.5c0-2-1-4.5-3.5-4.5S362,497,362,499.2L362,499.2z"/>
	<path d="M373.9,496.5c0-1.2,0-2.2-0.1-3.1h1.8l0.1,1.9h0.1c0.7-1.1,1.7-2.1,3.7-2.1c1.6,0,2.8,1,3.3,2.3h0c0.4-0.7,0.8-1.2,1.3-1.5
		c0.7-0.5,1.5-0.8,2.6-0.8c1.5,0,3.8,1,3.8,5v6.8h-2.1v-6.6c0-2.2-0.8-3.6-2.5-3.6c-1.2,0-2.1,0.9-2.5,1.9c-0.1,0.3-0.2,0.7-0.2,1.1
		v7.2h-2.1v-7c0-1.8-0.8-3.2-2.4-3.2c-1.3,0-2.3,1.1-2.6,2.1c-0.1,0.3-0.2,0.7-0.2,1v7h-2.1L373.9,496.5L373.9,496.5z"/>
	<path d="M399.1,489c1.3-0.2,2.8-0.3,4.4-0.3c3,0,5.1,0.7,6.5,2c1.4,1.3,2.3,3.2,2.3,5.8s-0.8,4.8-2.3,6.3c-1.5,1.5-4,2.3-7.2,2.3
		c-1.5,0-2.7-0.1-3.8-0.2V489L399.1,489z M401.2,503.3c0.5,0.1,1.3,0.1,2.1,0.1c4.5,0,6.9-2.5,6.9-6.9c0-3.8-2.1-6.2-6.5-6.2
		c-1.1,0-1.9,0.1-2.5,0.2V503.3L401.2,503.3z"/>
	<path d="M428.9,496.7c0,5.6-3.4,8.5-7.5,8.5s-7.3-3.3-7.3-8.2c0-5.1,3.2-8.5,7.5-8.5S428.9,491.9,428.9,496.7L428.9,496.7z
		 M416.3,497c0,3.5,1.9,6.5,5.2,6.5s5.2-3,5.2-6.7c0-3.2-1.7-6.6-5.2-6.6S416.3,493.4,416.3,497L416.3,497z"/>
	<path d="M433.7,488.8V505h-2.1v-16.2H433.7z"/>
	<path d="M444.9,490v3.3h3v1.6h-3v6.3c0,1.4,0.4,2.3,1.6,2.3c0.5,0,1-0.1,1.2-0.1l0.1,1.6c-0.4,0.2-1.1,0.3-1.9,0.3
		c-1,0-1.8-0.3-2.3-0.9c-0.6-0.6-0.8-1.7-0.8-3V495H441v-1.6h1.8v-2.8L444.9,490L444.9,490z"/>
	<path d="M460.7,499.1c0,4.3-3,6.2-5.8,6.2c-3.1,0-5.6-2.3-5.6-6c0-3.9,2.5-6.2,5.8-6.2S460.7,495.5,460.7,499.1z M451.4,499.2
		c0,2.5,1.5,4.5,3.5,4.5s3.5-1.9,3.5-4.5c0-2-1-4.5-3.5-4.5S451.4,497,451.4,499.2L451.4,499.2z"/>
	<path d="M478.5,487.9v14c0,1,0,2.2,0.1,3h-1.9l-0.1-2h0c-0.7,1.3-2.1,2.3-4,2.3c-2.8,0-5-2.4-5-5.9c0-3.9,2.4-6.2,5.2-6.2
		c1.8,0,3,0.8,3.5,1.8h0v-6.9H478.5L478.5,487.9z M476.3,498.1c0-0.3,0-0.6-0.1-0.9c-0.3-1.3-1.5-2.5-3-2.5c-2.2,0-3.5,1.9-3.5,4.5
		c0,2.3,1.2,4.3,3.4,4.3c1.4,0,2.7-0.9,3.1-2.5c0.1-0.3,0.1-0.6,0.1-0.9V498.1L476.3,498.1z"/>
	<path d="M488.4,505l-0.2-1.5h-0.1c-0.7,0.9-1.9,1.7-3.5,1.7c-2.3,0-3.5-1.7-3.5-3.3c0-2.8,2.5-4.3,7-4.3v-0.2c0-1-0.3-2.7-2.6-2.7
		c-1.1,0-2.2,0.3-3,0.9l-0.5-1.4c1-0.6,2.3-1,3.8-1c3.5,0,4.4,2.4,4.4,4.8v4.3c0,1,0,2,0.2,2.8L488.4,505L488.4,505z M488.1,499
		c-2.3,0-4.9,0.4-4.9,2.6c0,1.4,0.9,2,2,2c1.5,0,2.5-1,2.8-1.9c0.1-0.2,0.1-0.5,0.1-0.7V499L488.1,499z"/>
	<path d="M496,490v3.3h3v1.6h-3v6.3c0,1.4,0.4,2.3,1.6,2.3c0.5,0,1-0.1,1.2-0.1l0.1,1.6c-0.4,0.2-1.1,0.3-1.9,0.3
		c-1,0-1.8-0.3-2.3-0.9c-0.6-0.6-0.8-1.7-0.8-3V495h-1.8v-1.6h1.8v-2.8L496,490L496,490z"/>
	<path d="M507.8,505l-0.2-1.5h-0.1c-0.7,0.9-1.9,1.7-3.5,1.7c-2.3,0-3.5-1.7-3.5-3.3c0-2.8,2.5-4.3,7-4.3v-0.2c0-1-0.3-2.7-2.6-2.7
		c-1.1,0-2.2,0.3-3,0.9l-0.5-1.4c1-0.6,2.3-1,3.8-1c3.5,0,4.4,2.4,4.4,4.8v4.3c0,1,0,2,0.2,2.8L507.8,505L507.8,505z M507.5,499
		c-2.3,0-4.9,0.4-4.9,2.6c0,1.4,0.9,2,2,2c1.5,0,2.5-1,2.8-1.9c0.1-0.2,0.1-0.5,0.1-0.7V499L507.5,499z"/>
	<path d="M512.5,503.7c0-0.9,0.6-1.5,1.4-1.5c0.9,0,1.4,0.6,1.4,1.5s-0.5,1.5-1.4,1.5S512.5,504.6,512.5,503.7z M513.1,500.3
		l-0.3-11.5h2.3l-0.3,11.5H513.1L513.1,500.3z"/>
</g>
<path class="st2" d="M172.8,142l45,49c0,0.1,0.1,0.1,0.2,0.1l32.7,29.2c1.3,1.1,3.3,0.4,3.5-1.3l6.3-58.3c0-0.1,0-0.2,0-0.2
	c2.6-11.8,8.2-18.7,20.4-18.9c13.1-0.2,17.8,8.4,19.4,20.7c0,0.1,0,0.2,0,0.3l0.8,48c0,0.1,0,0.1,0,0.2c1.3,12.5,6.9,45.1,6.9,60.2
	c0,46.6-33.7,77.3-84.5,80.1c-44.2,2.4-55.1-26.4-81.4-37.7l0,0l-71.4-36.2c-8.1-3.7-11.2-14.8-7.5-22.6c3.6-7.8,13.4-9.4,22.8-7.4
	c0.1,0,0.3,0.1,0.4,0.1l70.2,30.2c0.3,0.1-78.2-47.3-78.2-47.3c-12.6-7.1-12.2-17.6-7.7-25.4c4.5-7.7,18.3-8.5,27-3.4
	c0,0,82,50.2,81.6,49.9l-82-65c-9.2-7.7-10.8-21.2-5.5-28.4s17.6-6.8,25.7-0.9l0,0l85.5,68.4c0.2,0.1,0.1,0.2,0,0l-62.8-66.5
	c0,0,0,0,0,0c-6.4-8.1-6.4-20.6,1-25.6C149.3,127.6,160,127.8,172.8,142C172.8,142,172.8,142,172.8,142L172.8,142L172.8,142z"/>
<path class="st3" d="M467.2,142l-45,49c0,0.1-0.1,0.1-0.2,0.1l-32.7,29.2c-1.3,1.1-3.3,0.4-3.5-1.3l-6.3-58.3c0-0.1,0-0.2,0-0.2
	c-2.6-11.8-8.2-18.7-20.4-18.9c-13.1-0.2-17.8,8.4-19.4,20.7c0,0.1,0,0.2,0,0.3l-0.8,48c0,0.1,0,0.1,0,0.2
	c-1.3,12.5-6.9,45.1-6.9,60.2c0,46.6,33.7,77.3,84.5,80.1c44.2,2.4,55.1-26.4,81.4-37.7l0,0l71.4-36.2c8.1-3.7,11.2-14.8,7.5-22.6
	c-3.6-7.8-13.4-9.4-22.8-7.4c-0.1,0-0.3,0.1-0.4,0.1l-70.2,30.2c-0.3,0.1,78.2-47.3,78.2-47.3c12.6-7.1,12.2-17.6,7.7-25.4
	c-4.5-7.7-18.3-8.5-27-3.4c0,0-82,50.2-81.6,49.9l82-65c9.2-7.7,10.8-21.2,5.5-28.4c-5.3-7.2-17.6-6.8-25.7-0.9l0,0l-85.5,68.4
	c-0.2,0.1-0.1,0.2,0,0l62.8-66.5c0,0,0,0,0,0c6.4-8.1,6.4-20.6-1-25.6C490.7,127.6,480,127.8,467.2,142
	C467.3,142,467.2,142,467.2,142L467.2,142L467.2,142z"/>
<path class="st0" d="z"/>
</svg>
