<?xml version="1.0" encoding="UTF-8"?><svg id="a" xmlns="http://www.w3.org/2000/svg" viewBox="0 0 561.73 279.95"><defs><style>.b{fill:#ff7ff9;}.b,.c{stroke:#4d4d4d;stroke-miterlimit:10;stroke-width:5px;}.c{fill:#8e76ff;}</style></defs><path class="b" d="M196.11,9.56l26.03,28.34s.06,.06,.08,.08l18.93,16.91c.73,.65,1.89,.21,2-.77l3.66-33.72s.01-.1,.02-.15c1.51-6.83,4.75-10.82,11.77-10.92,7.58-.1,10.27,4.84,11.23,11.97,0,.05,.01,.1,.01,.15l.46,27.78s0,.07,0,.1c.74,7.21,3.97,26.11,3.97,34.79,0,26.96-19.49,44.7-48.85,46.33-25.58,1.41-31.86-15.27-47.07-21.82h0l-41.27-20.92c-4.7-2.16-6.45-8.53-4.36-13.1,2.09-4.54,7.73-5.42,13.2-4.26,.08,.02,.16,.04,.24,.08l40.58,17.45c.16,.07-45.21-27.37-45.21-27.37-7.29-4.09-7.05-10.2-4.45-14.67,2.6-4.48,10.6-4.9,15.62-1.98,0,0,47.44,29.03,47.19,28.85l-47.4-37.58c-5.33-4.47-6.22-12.24-3.18-16.42s10.18-3.96,14.87-.55h0l49.44,39.55c.09,.07,.07,.09,0,0l-36.34-38.45h-.01c-3.72-4.67-3.71-11.91,.56-14.84,4.7-3.22,10.85-3.08,18.25,5.11h.01"/><path class="c" d="M366.4,9.56l-26.03,28.34s-.06,.06-.08,.08l-18.93,16.91c-.73,.65-1.89,.21-2-.77l-3.66-33.72s-.01-.1-.02-.15c-1.51-6.83-4.75-10.82-11.77-10.92-7.58-.1-10.27,4.84-11.23,11.97,0,.05-.01,.1-.01,.15l-.46,27.78s0,.07,0,.1c-.74,7.21-3.97,26.11-3.97,34.79,0,26.96,19.49,44.7,48.85,46.33,25.58,1.41,31.86-15.27,47.07-21.82h0l41.27-20.92c4.7-2.16,6.45-8.53,4.36-13.1-2.09-4.54-7.73-5.42-13.2-4.26-.08,.02-.16,.04-.24,.08l-40.58,17.45c-.16,.07,45.21-27.37,45.21-27.37,7.29-4.09,7.05-10.2,4.45-14.67-2.6-4.48-10.6-4.9-15.62-1.98,0,0-47.44,29.03-47.19,28.85l47.4-37.58c5.33-4.47,6.22-12.24,3.18-16.42s-10.18-3.96-14.87-.55h0l-49.44,39.55c-.09,.07-.07,.09,0,0l36.34-38.45h.01c3.72-4.67,3.71-11.91-.56-14.84-4.7-3.22-10.85-3.08-18.25,5.11h-.01"/><g><path d="M8.52,177.33c5.94-.9,13.01-1.57,20.75-1.57,14.02,0,24,3.25,30.62,9.42,6.73,6.17,10.65,14.92,10.65,27.14s-3.81,22.43-10.88,29.38c-7.07,7.07-18.73,10.88-33.42,10.88-6.95,0-12.79-.34-17.72-.9v-74.36Zm9.76,66.84c2.47,.45,6.06,.56,9.87,.56,20.86,0,32.19-11.66,32.19-32.08,.11-17.83-9.98-29.16-30.62-29.16-5.05,0-8.86,.45-11.44,1.01v59.67Z"/><path d="M112.93,251.91l-.78-6.84h-.34c-3.03,4.26-8.86,8.07-16.6,8.07-10.99,0-16.6-7.74-16.6-15.59,0-13.12,11.66-20.3,32.64-20.19v-1.12c0-4.49-1.23-12.56-12.34-12.56-5.05,0-10.32,1.57-14.13,4.04l-2.24-6.5c4.49-2.92,10.99-4.82,17.83-4.82,16.6,0,20.64,11.33,20.64,22.21v20.3c0,4.71,.22,9.31,.9,13.01h-8.97Zm-1.46-27.7c-10.77-.22-22.99,1.68-22.99,12.22,0,6.39,4.26,9.42,9.31,9.42,7.07,0,11.55-4.49,13.12-9.08,.34-1.01,.56-2.13,.56-3.14v-9.42Z"/><path d="M148.37,182.04v15.59h14.13v7.51h-14.13v29.27c0,6.73,1.91,10.54,7.4,10.54,2.58,0,4.49-.34,5.72-.67l.45,7.4c-1.91,.79-4.93,1.35-8.75,1.35-4.6,0-8.3-1.46-10.65-4.15-2.8-2.92-3.81-7.74-3.81-14.13v-29.61h-8.41v-7.51h8.41v-13.01l9.65-2.58Z"/><path d="M203.66,251.91l-.78-6.84h-.34c-3.03,4.26-8.86,8.07-16.6,8.07-10.99,0-16.6-7.74-16.6-15.59,0-13.12,11.66-20.3,32.64-20.19v-1.12c0-4.49-1.23-12.56-12.34-12.56-5.05,0-10.32,1.57-14.13,4.04l-2.24-6.5c4.49-2.92,10.99-4.82,17.83-4.82,16.6,0,20.64,11.33,20.64,22.21v20.3c0,4.71,.22,9.31,.9,13.01h-8.97Zm-1.46-27.7c-10.77-.22-22.99,1.68-22.99,12.22,0,6.39,4.26,9.42,9.31,9.42,7.07,0,11.55-4.49,13.12-9.08,.34-1.01,.56-2.13,.56-3.14v-9.42Z"/><path d="M227.65,172.28h9.87v33.87h.22c1.57-2.8,4.04-5.27,7.07-6.95,2.92-1.68,6.39-2.8,10.09-2.8,7.29,0,18.95,4.49,18.95,23.22v32.3h-9.87v-31.18c0-8.75-3.25-16.15-12.56-16.15-6.39,0-11.44,4.49-13.23,9.87-.56,1.35-.67,2.8-.67,4.71v32.75h-9.87v-79.63Z"/><path d="M335.31,237.11c0,5.61,.11,10.54,.45,14.8h-8.75l-.56-8.86h-.22c-2.58,4.37-8.3,10.09-17.94,10.09-8.52,0-18.73-4.71-18.73-23.78v-31.74h9.87v30.06c0,10.32,3.14,17.27,12.11,17.27,6.62,0,11.22-4.6,13.01-8.97,.56-1.46,.9-3.25,.9-5.05v-33.31h9.87v39.48Z"/><path d="M398.45,197.63c-.22,3.92-.45,8.3-.45,14.92v31.51c0,12.45-2.47,20.08-7.74,24.79-5.27,4.94-12.9,6.5-19.74,6.5s-13.68-1.57-18.06-4.49l2.47-7.51c3.59,2.24,9.2,4.26,15.93,4.26,10.09,0,17.5-5.27,17.5-18.95v-6.06h-.22c-3.03,5.05-8.86,9.08-17.27,9.08-13.46,0-23.1-11.44-23.1-26.47,0-18.39,12-28.82,24.45-28.82,9.42,0,14.58,4.93,16.94,9.42h.22l.45-8.19h8.64Zm-10.21,21.42c0-1.68-.11-3.14-.56-4.49-1.79-5.72-6.62-10.43-13.79-10.43-9.42,0-16.15,7.96-16.15,20.52,0,10.65,5.38,19.51,16.04,19.51,6.06,0,11.55-3.81,13.68-10.09,.56-1.68,.79-3.59,.79-5.27v-9.76Z"/><path d="M461.14,197.63c-.22,3.92-.45,8.3-.45,14.92v31.51c0,12.45-2.47,20.08-7.74,24.79-5.27,4.94-12.9,6.5-19.74,6.5s-13.68-1.57-18.06-4.49l2.47-7.51c3.59,2.24,9.2,4.26,15.93,4.26,10.09,0,17.5-5.27,17.5-18.95v-6.06h-.22c-3.03,5.05-8.86,9.08-17.27,9.08-13.46,0-23.1-11.44-23.1-26.47,0-18.39,12-28.82,24.45-28.82,9.42,0,14.58,4.93,16.93,9.42h.22l.45-8.19h8.64Zm-10.21,21.42c0-1.68-.11-3.14-.56-4.49-1.79-5.72-6.62-10.43-13.79-10.43-9.42,0-16.15,7.96-16.15,20.52,0,10.65,5.38,19.51,16.04,19.51,6.06,0,11.55-3.81,13.68-10.09,.56-1.68,.79-3.59,.79-5.27v-9.76Z"/><path d="M482.56,226.56c.22,13.35,8.75,18.84,18.62,18.84,7.07,0,11.33-1.23,15.03-2.8l1.68,7.07c-3.48,1.57-9.42,3.36-18.06,3.36-16.71,0-26.69-10.99-26.69-27.36s9.65-29.27,25.46-29.27c17.72,0,22.43,15.59,22.43,25.57,0,2.02-.22,3.59-.34,4.6h-38.13Zm28.94-7.07c.11-6.28-2.58-16.04-13.68-16.04-9.98,0-14.36,9.2-15.14,16.04h28.82Z"/><path d="M533.24,214.56c0-6.39-.11-11.89-.45-16.93h8.64l.34,10.65h.45c2.47-7.29,8.41-11.89,15.03-11.89,1.12,0,1.91,.11,2.8,.34v9.31c-1.01-.22-2.02-.34-3.36-.34-6.95,0-11.89,5.27-13.23,12.67-.22,1.35-.45,2.92-.45,4.6v28.94h-9.76v-37.35Z"/></g></svg>