<?xml version="1.0" encoding="UTF-8"?><svg id="a" xmlns="http://www.w3.org/2000/svg" viewBox="0 0 1280 640"><defs><style>.b{fill:#887dba;}.b,.c{stroke-width:10px;}.b,.c,.d{stroke:#fff;stroke-miterlimit:10;}.c{fill:#85ab70;}.d{fill:#fff;}</style></defs><g><path class="d" d="M463.34,422.88c3.82-.58,8.35-1.01,13.32-1.01,9,0,15.41,2.09,19.66,6.05,4.32,3.96,6.84,9.58,6.84,17.43s-2.45,14.4-6.98,18.87c-4.54,4.54-12.02,6.98-21.46,6.98-4.46,0-8.21-.22-11.38-.58v-47.74Zm6.26,42.92c1.58,.29,3.89,.36,6.34,.36,13.39,0,20.67-7.49,20.67-20.59,.07-11.45-6.41-18.72-19.66-18.72-3.24,0-5.69,.29-7.34,.65v38.31Z"/><path class="d" d="M530.38,470.76l-.5-4.39h-.22c-1.94,2.74-5.69,5.18-10.66,5.18-7.06,0-10.66-4.97-10.66-10.01,0-8.42,7.49-13.03,20.95-12.96v-.72c0-2.88-.79-8.06-7.92-8.06-3.24,0-6.62,1.01-9.07,2.59l-1.44-4.18c2.88-1.87,7.06-3.1,11.45-3.1,10.66,0,13.25,7.27,13.25,14.26v13.03c0,3.02,.14,5.98,.58,8.35h-5.76Zm-.94-17.79c-6.91-.14-14.76,1.08-14.76,7.85,0,4.1,2.74,6.05,5.98,6.05,4.54,0,7.42-2.88,8.42-5.83,.22-.65,.36-1.37,.36-2.02v-6.05Z"/><path class="d" d="M553.13,425.9v10.01h9.07v4.82h-9.07v18.79c0,4.32,1.22,6.77,4.75,6.77,1.66,0,2.88-.22,3.67-.43l.29,4.75c-1.22,.5-3.17,.86-5.62,.86-2.95,0-5.33-.94-6.84-2.66-1.8-1.87-2.45-4.97-2.45-9.07v-19.01h-5.4v-4.82h5.4v-8.35l6.19-1.66Z"/><path class="d" d="M588.62,470.76l-.5-4.39h-.22c-1.94,2.74-5.69,5.18-10.66,5.18-7.06,0-10.66-4.97-10.66-10.01,0-8.42,7.49-13.03,20.95-12.96v-.72c0-2.88-.79-8.06-7.92-8.06-3.24,0-6.62,1.01-9.07,2.59l-1.44-4.18c2.88-1.87,7.06-3.1,11.45-3.1,10.66,0,13.25,7.27,13.25,14.26v13.03c0,3.02,.14,5.98,.58,8.35h-5.76Zm-.94-17.79c-6.91-.14-14.76,1.08-14.76,7.85,0,4.1,2.74,6.05,5.98,6.05,4.54,0,7.42-2.88,8.42-5.83,.22-.65,.36-1.37,.36-2.02v-6.05Z"/><path class="d" d="M604.03,419.64h6.34v21.75h.14c1.01-1.8,2.59-3.38,4.54-4.46,1.87-1.08,4.1-1.8,6.48-1.8,4.68,0,12.17,2.88,12.17,14.91v20.74h-6.34v-20.02c0-5.62-2.09-10.37-8.06-10.37-4.1,0-7.34,2.88-8.5,6.34-.36,.86-.43,1.8-.43,3.02v21.03h-6.34v-51.12Z"/><path class="d" d="M673.15,461.26c0,3.6,.07,6.77,.29,9.5h-5.62l-.36-5.69h-.14c-1.66,2.81-5.33,6.48-11.52,6.48-5.47,0-12.02-3.02-12.02-15.27v-20.38h6.34v19.3c0,6.62,2.02,11.09,7.78,11.09,4.25,0,7.2-2.95,8.35-5.76,.36-.94,.58-2.09,.58-3.24v-21.39h6.34v25.35Z"/><path class="d" d="M713.69,435.91c-.14,2.52-.29,5.33-.29,9.58v20.23c0,7.99-1.58,12.89-4.97,15.91-3.38,3.17-8.28,4.18-12.67,4.18s-8.78-1.01-11.59-2.88l1.58-4.82c2.3,1.44,5.9,2.74,10.22,2.74,6.48,0,11.23-3.38,11.23-12.17v-3.89h-.14c-1.94,3.24-5.69,5.83-11.09,5.83-8.64,0-14.83-7.34-14.83-16.99,0-11.81,7.71-18.51,15.7-18.51,6.05,0,9.36,3.17,10.87,6.05h.14l.29-5.26h5.54Zm-6.55,13.75c0-1.08-.07-2.02-.36-2.88-1.15-3.67-4.25-6.7-8.86-6.7-6.05,0-10.37,5.11-10.37,13.18,0,6.84,3.46,12.53,10.3,12.53,3.89,0,7.42-2.45,8.78-6.48,.36-1.08,.5-2.3,.5-3.38v-6.26Z"/><path class="d" d="M753.94,435.91c-.14,2.52-.29,5.33-.29,9.58v20.23c0,7.99-1.58,12.89-4.97,15.91-3.38,3.17-8.28,4.18-12.67,4.18s-8.78-1.01-11.59-2.88l1.58-4.82c2.3,1.44,5.9,2.74,10.22,2.74,6.48,0,11.23-3.38,11.23-12.17v-3.89h-.14c-1.94,3.24-5.69,5.83-11.09,5.83-8.64,0-14.83-7.34-14.83-16.99,0-11.81,7.71-18.51,15.7-18.51,6.05,0,9.36,3.17,10.87,6.05h.14l.29-5.26h5.54Zm-6.55,13.75c0-1.08-.07-2.02-.36-2.88-1.15-3.67-4.25-6.7-8.86-6.7-6.05,0-10.37,5.11-10.37,13.18,0,6.84,3.46,12.53,10.3,12.53,3.89,0,7.42-2.45,8.78-6.48,.36-1.08,.5-2.3,.5-3.38v-6.26Z"/><path class="d" d="M767.68,454.49c.14,8.57,5.62,12.1,11.95,12.1,4.54,0,7.27-.79,9.65-1.8l1.08,4.54c-2.23,1.01-6.05,2.16-11.59,2.16-10.73,0-17.14-7.06-17.14-17.57s6.19-18.79,16.35-18.79c11.38,0,14.4,10.01,14.4,16.42,0,1.3-.14,2.3-.22,2.95h-24.48Zm18.58-4.54c.07-4.03-1.66-10.3-8.79-10.3-6.41,0-9.22,5.9-9.72,10.3h18.51Z"/><path class="d" d="M800.23,446.79c0-4.1-.07-7.63-.29-10.87h5.54l.22,6.84h.29c1.58-4.68,5.4-7.63,9.65-7.63,.72,0,1.22,.07,1.8,.22v5.98c-.65-.14-1.3-.22-2.16-.22-4.46,0-7.63,3.38-8.5,8.14-.14,.86-.29,1.87-.29,2.95v18.58h-6.26v-23.98Z"/></g><path class="c" d="M493.11,164.84l45.01,49.01c.05,.05,.1,.1,.15,.14l32.74,29.25c1.26,1.13,3.27,.36,3.46-1.33l6.33-58.3c0-.08,.02-.17,.04-.25,2.62-11.81,8.22-18.72,20.36-18.88,13.11-.17,17.76,8.37,19.42,20.7,.01,.09,.02,.18,.02,.27l.8,48.03c0,.06,0,.12,.01,.18,1.28,12.47,6.86,45.15,6.86,60.16,0,46.62-33.7,77.3-84.48,80.11-44.23,2.44-55.09-26.4-81.4-37.73h0l-71.36-36.17c-8.12-3.74-11.16-14.75-7.53-22.65,3.61-7.84,13.37-9.37,22.82-7.36,.14,.03,.28,.08,.41,.13l70.18,30.18c.27,.12-78.19-47.33-78.19-47.33-12.61-7.07-12.18-17.64-7.69-25.37,4.49-7.74,18.33-8.47,27.01-3.43,0,0,82.04,50.2,81.61,49.89l-81.97-64.99c-9.21-7.73-10.76-21.16-5.49-28.4s17.61-6.84,25.72-.94c0,0,0,0,0,0l85.49,68.39c.15,.13,.12,.16,0,0l-62.83-66.48s-.01-.01-.02-.02c-6.42-8.06-6.42-20.58,.96-25.64,8.12-5.57,18.76-5.32,31.55,8.83,0,0,.01,.01,.02,.02l-.02-.02Z"/><path class="b" d="M787.59,164.84l-45.01,49.01c-.05,.05-.1,.1-.15,.14l-32.74,29.25c-1.26,1.13-3.27,.36-3.46-1.33l-6.33-58.3c0-.08-.02-.17-.04-.25-2.62-11.81-8.22-18.72-20.36-18.88-13.11-.17-17.76,8.37-19.42,20.7-.01,.09-.02,.18-.02,.27l-.8,48.03c0,.06,0,.12-.01,.18-1.28,12.47-6.86,45.15-6.86,60.16,0,46.62,33.7,77.3,84.48,80.11,44.23,2.44,55.09-26.4,81.4-37.73h0l71.36-36.17c8.12-3.74,11.16-14.75,7.53-22.65-3.61-7.84-13.37-9.37-22.82-7.36-.14,.03-.28,.08-.41,.13l-70.18,30.18c-.27,.12,78.19-47.33,78.19-47.33,12.61-7.07,12.18-17.64,7.69-25.37-4.49-7.74-18.33-8.47-27.01-3.43,0,0-82.04,50.2-81.61,49.89l81.97-64.99c9.21-7.73,10.76-21.16,5.49-28.4-5.26-7.23-17.61-6.84-25.72-.94,0,0,0,0,0,0l-85.49,68.39c-.15,.13-.12,.16,0,0l62.83-66.48s.01-.01,.02-.02c6.42-8.06,6.42-20.58-.96-25.64-8.12-5.57-18.76-5.32-31.55,8.83,0,0-.01,.01-.02,.02l.02-.02Z"/></svg>