<?xml version="1.0" encoding="UTF-8"?><svg id="a" xmlns="http://www.w3.org/2000/svg" viewBox="0 0 1280 640" style="background-color:white"><defs><style>.b{fill:#333;}.c{fill:#887dba;}.c,.d{stroke:#333;stroke-miterlimit:10;stroke-width:10px;}.d{fill:#85ab70;}</style></defs><g><path class="b" d="M463.37,433.26c3.82-.58,8.35-1.01,13.32-1.01,9,0,15.41,2.09,19.66,6.05,4.32,3.96,6.84,9.58,6.84,17.43s-2.45,14.4-6.98,18.87c-4.54,4.54-12.02,6.98-21.46,6.98-4.46,0-8.21-.22-11.38-.58v-47.74Zm6.26,42.92c1.58,.29,3.89,.36,6.34,.36,13.39,0,20.67-7.49,20.67-20.59,.07-11.45-6.41-18.72-19.66-18.72-3.24,0-5.69,.29-7.34,.65v38.31Z"/><path class="b" d="M530.4,481.14l-.5-4.39h-.22c-1.94,2.74-5.69,5.18-10.66,5.18-7.06,0-10.66-4.97-10.66-10.01,0-8.42,7.49-13.03,20.95-12.96v-.72c0-2.88-.79-8.06-7.92-8.06-3.24,0-6.62,1.01-9.07,2.59l-1.44-4.18c2.88-1.87,7.06-3.1,11.45-3.1,10.66,0,13.25,7.27,13.25,14.26v13.03c0,3.02,.14,5.98,.58,8.35h-5.76Zm-.94-17.79c-6.91-.14-14.76,1.08-14.76,7.85,0,4.1,2.74,6.05,5.98,6.05,4.54,0,7.42-2.88,8.42-5.83,.22-.65,.36-1.37,.36-2.02v-6.05Z"/><path class="b" d="M553.15,436.28v10.01h9.07v4.82h-9.07v18.79c0,4.32,1.22,6.77,4.75,6.77,1.66,0,2.88-.22,3.67-.43l.29,4.75c-1.22,.5-3.17,.86-5.62,.86-2.95,0-5.33-.94-6.84-2.66-1.8-1.87-2.45-4.97-2.45-9.07v-19.01h-5.4v-4.82h5.4v-8.35l6.19-1.66Z"/><path class="b" d="M588.65,481.14l-.5-4.39h-.22c-1.94,2.74-5.69,5.18-10.66,5.18-7.06,0-10.66-4.97-10.66-10.01,0-8.42,7.49-13.03,20.95-12.96v-.72c0-2.88-.79-8.06-7.92-8.06-3.24,0-6.62,1.01-9.07,2.59l-1.44-4.18c2.88-1.87,7.06-3.1,11.45-3.1,10.66,0,13.25,7.27,13.25,14.26v13.03c0,3.02,.14,5.98,.58,8.35h-5.76Zm-.94-17.79c-6.91-.14-14.76,1.08-14.76,7.85,0,4.1,2.74,6.05,5.98,6.05,4.54,0,7.42-2.88,8.42-5.83,.22-.65,.36-1.37,.36-2.02v-6.05Z"/><path class="b" d="M604.06,430.02h6.34v21.75h.14c1.01-1.8,2.59-3.38,4.54-4.46,1.87-1.08,4.1-1.8,6.48-1.8,4.68,0,12.17,2.88,12.17,14.91v20.74h-6.34v-20.02c0-5.62-2.09-10.37-8.06-10.37-4.1,0-7.34,2.88-8.5,6.34-.36,.86-.43,1.8-.43,3.02v21.03h-6.34v-51.12Z"/><path class="b" d="M673.18,471.64c0,3.6,.07,6.77,.29,9.5h-5.62l-.36-5.69h-.14c-1.66,2.81-5.33,6.48-11.52,6.48-5.47,0-12.02-3.02-12.02-15.27v-20.38h6.34v19.3c0,6.62,2.02,11.09,7.78,11.09,4.25,0,7.2-2.95,8.35-5.76,.36-.94,.58-2.09,.58-3.24v-21.39h6.34v25.35Z"/><path class="b" d="M713.71,446.29c-.14,2.52-.29,5.33-.29,9.58v20.23c0,7.99-1.58,12.89-4.97,15.91-3.38,3.17-8.28,4.18-12.67,4.18s-8.78-1.01-11.59-2.88l1.58-4.82c2.3,1.44,5.9,2.74,10.22,2.74,6.48,0,11.23-3.38,11.23-12.17v-3.89h-.14c-1.94,3.24-5.69,5.83-11.09,5.83-8.64,0-14.83-7.34-14.83-16.99,0-11.81,7.71-18.51,15.7-18.51,6.05,0,9.36,3.17,10.87,6.05h.14l.29-5.26h5.54Zm-6.55,13.75c0-1.08-.07-2.02-.36-2.88-1.15-3.67-4.25-6.7-8.86-6.7-6.05,0-10.37,5.11-10.37,13.18,0,6.84,3.46,12.53,10.3,12.53,3.89,0,7.42-2.45,8.78-6.48,.36-1.08,.5-2.3,.5-3.38v-6.26Z"/><path class="b" d="M753.96,446.29c-.14,2.52-.29,5.33-.29,9.58v20.23c0,7.99-1.58,12.89-4.97,15.91-3.38,3.17-8.28,4.18-12.67,4.18s-8.78-1.01-11.59-2.88l1.58-4.82c2.3,1.44,5.9,2.74,10.22,2.74,6.48,0,11.23-3.38,11.23-12.17v-3.89h-.14c-1.94,3.24-5.69,5.83-11.09,5.83-8.64,0-14.83-7.34-14.83-16.99,0-11.81,7.71-18.51,15.7-18.51,6.05,0,9.36,3.17,10.87,6.05h.14l.29-5.26h5.54Zm-6.55,13.75c0-1.08-.07-2.02-.36-2.88-1.15-3.67-4.25-6.7-8.86-6.7-6.05,0-10.37,5.11-10.37,13.18,0,6.84,3.46,12.53,10.3,12.53,3.89,0,7.42-2.45,8.78-6.48,.36-1.08,.5-2.3,.5-3.38v-6.26Z"/><path class="b" d="M767.71,464.87c.14,8.57,5.62,12.1,11.95,12.1,4.54,0,7.27-.79,9.65-1.8l1.08,4.54c-2.23,1.01-6.05,2.16-11.59,2.16-10.73,0-17.14-7.06-17.14-17.57s6.19-18.79,16.35-18.79c11.38,0,14.4,10.01,14.4,16.42,0,1.3-.14,2.3-.22,2.95h-24.48Zm18.58-4.54c.07-4.03-1.66-10.3-8.79-10.3-6.41,0-9.22,5.9-9.72,10.3h18.51Z"/><path class="b" d="M800.25,457.17c0-4.1-.07-7.63-.29-10.87h5.54l.22,6.84h.29c1.58-4.68,5.4-7.63,9.65-7.63,.72,0,1.22,.07,1.8,.22v5.98c-.65-.14-1.3-.22-2.16-.22-4.46,0-7.63,3.38-8.5,8.14-.14,.86-.29,1.87-.29,2.95v18.58h-6.26v-23.98Z"/></g><g><path d="M444.29,523.82h-4.92v-1.78h11.98v1.78h-4.94v14.4h-2.11v-14.4Z"/><path d="M452.91,521.18h2.11v7.25h.05c.34-.6,.86-1.13,1.51-1.49,.62-.36,1.37-.6,2.16-.6,1.56,0,4.06,.96,4.06,4.97v6.91h-2.11v-6.67c0-1.87-.7-3.46-2.69-3.46-1.37,0-2.45,.96-2.83,2.11-.12,.29-.14,.6-.14,1.01v7.01h-2.11v-17.04Z"/><path d="M467.4,532.8c.05,2.86,1.87,4.03,3.98,4.03,1.51,0,2.42-.26,3.22-.6l.36,1.51c-.74,.34-2.02,.72-3.86,.72-3.58,0-5.71-2.35-5.71-5.86s2.06-6.26,5.45-6.26c3.79,0,4.8,3.34,4.8,5.47,0,.43-.05,.77-.07,.98h-8.16Zm6.19-1.51c.02-1.34-.55-3.43-2.93-3.43-2.14,0-3.07,1.97-3.24,3.43h6.17Z"/><path d="M484.52,532.8c.05,2.86,1.87,4.03,3.98,4.03,1.51,0,2.42-.26,3.22-.6l.36,1.51c-.74,.34-2.02,.72-3.86,.72-3.58,0-5.71-2.35-5.71-5.86s2.06-6.26,5.45-6.26c3.79,0,4.8,3.34,4.8,5.47,0,.43-.05,.77-.07,.98h-8.16Zm6.19-1.51c.02-1.34-.55-3.43-2.93-3.43-2.14,0-3.07,1.97-3.24,3.43h6.17Z"/><path d="M501.79,538.23l-.17-1.46h-.07c-.65,.91-1.9,1.73-3.55,1.73-2.35,0-3.55-1.66-3.55-3.34,0-2.81,2.5-4.34,6.98-4.32v-.24c0-.96-.26-2.69-2.64-2.69-1.08,0-2.21,.34-3.02,.86l-.48-1.39c.96-.62,2.35-1.03,3.82-1.03,3.55,0,4.42,2.42,4.42,4.75v4.34c0,1.01,.05,1.99,.19,2.78h-1.92Zm-.31-5.93c-2.3-.05-4.92,.36-4.92,2.62,0,1.37,.91,2.02,1.99,2.02,1.51,0,2.47-.96,2.81-1.94,.07-.22,.12-.46,.12-.67v-2.02Z"/><path d="M506.64,536.07c.62,.41,1.73,.84,2.78,.84,1.54,0,2.26-.77,2.26-1.73,0-1.01-.6-1.56-2.16-2.14-2.09-.74-3.07-1.9-3.07-3.29,0-1.87,1.51-3.41,4.01-3.41,1.18,0,2.21,.34,2.86,.72l-.53,1.54c-.46-.29-1.3-.67-2.38-.67-1.25,0-1.94,.72-1.94,1.58,0,.96,.7,1.39,2.21,1.97,2.02,.77,3.05,1.78,3.05,3.5,0,2.04-1.58,3.48-4.34,3.48-1.27,0-2.45-.31-3.26-.79l.53-1.61Z"/><path d="M518.79,523.34c.02,.72-.5,1.3-1.34,1.3-.74,0-1.27-.58-1.27-1.3s.55-1.32,1.32-1.32,1.3,.58,1.3,1.32Zm-2.35,14.88v-11.62h2.11v11.62h-2.11Z"/><path d="M523.23,532.8c.05,2.86,1.87,4.03,3.98,4.03,1.51,0,2.42-.26,3.22-.6l.36,1.51c-.74,.34-2.02,.72-3.86,.72-3.58,0-5.71-2.35-5.71-5.86s2.06-6.26,5.45-6.26c3.79,0,4.8,3.34,4.8,5.47,0,.43-.05,.77-.07,.98h-8.16Zm6.19-1.51c.02-1.34-.55-3.43-2.93-3.43-2.14,0-3.07,1.97-3.24,3.43h6.17Z"/><path d="M533.79,536.07c.62,.41,1.73,.84,2.78,.84,1.54,0,2.26-.77,2.26-1.73,0-1.01-.6-1.56-2.16-2.14-2.09-.74-3.07-1.9-3.07-3.29,0-1.87,1.51-3.41,4.01-3.41,1.18,0,2.21,.34,2.86,.72l-.53,1.54c-.46-.29-1.3-.67-2.38-.67-1.25,0-1.94,.72-1.94,1.58,0,.96,.7,1.39,2.21,1.97,2.02,.77,3.05,1.78,3.05,3.5,0,2.04-1.58,3.48-4.34,3.48-1.27,0-2.45-.31-3.26-.79l.53-1.61Z"/><path d="M546.12,523.27v3.34h3.02v1.61h-3.02v6.26c0,1.44,.41,2.26,1.58,2.26,.55,0,.96-.07,1.22-.14l.1,1.58c-.41,.17-1.06,.29-1.87,.29-.98,0-1.78-.31-2.28-.89-.6-.62-.82-1.66-.82-3.02v-6.34h-1.8v-1.61h1.8v-2.78l2.06-.55Z"/><path d="M557.45,526.61l1.54,5.9c.34,1.3,.65,2.5,.86,3.7h.07c.26-1.18,.65-2.42,1.03-3.67l1.9-5.93h1.78l1.8,5.81c.43,1.39,.77,2.62,1.03,3.79h.07c.19-1.18,.5-2.4,.89-3.77l1.66-5.83h2.09l-3.74,11.62h-1.92l-1.78-5.54c-.41-1.3-.74-2.45-1.03-3.82h-.05c-.29,1.39-.65,2.59-1.06,3.84l-1.87,5.52h-1.92l-3.5-11.62h2.16Z"/><path d="M580.61,538.23l-.17-1.46h-.07c-.65,.91-1.9,1.73-3.55,1.73-2.35,0-3.55-1.66-3.55-3.34,0-2.81,2.5-4.34,6.98-4.32v-.24c0-.96-.26-2.69-2.64-2.69-1.08,0-2.21,.34-3.02,.86l-.48-1.39c.96-.62,2.35-1.03,3.82-1.03,3.55,0,4.42,2.42,4.42,4.75v4.34c0,1.01,.05,1.99,.19,2.78h-1.92Zm-.31-5.93c-2.3-.05-4.92,.36-4.92,2.62,0,1.37,.91,2.02,1.99,2.02,1.51,0,2.47-.96,2.81-1.94,.07-.22,.12-.46,.12-.67v-2.02Z"/><path d="M586.32,526.61l2.54,6.86c.26,.77,.55,1.68,.74,2.38h.05c.22-.7,.46-1.58,.74-2.42l2.3-6.82h2.23l-3.17,8.28c-1.51,3.98-2.54,6.02-3.98,7.27-1.03,.91-2.06,1.27-2.59,1.37l-.53-1.78c.53-.17,1.22-.5,1.85-1.03,.58-.46,1.3-1.27,1.78-2.35,.1-.22,.17-.38,.17-.5s-.05-.29-.14-.55l-4.3-10.71h2.3Z"/><path d="M604.49,523.27v3.34h3.02v1.61h-3.02v6.26c0,1.44,.41,2.26,1.58,2.26,.55,0,.96-.07,1.22-.14l.1,1.58c-.41,.17-1.06,.29-1.87,.29-.98,0-1.78-.31-2.28-.89-.6-.62-.82-1.66-.82-3.02v-6.34h-1.8v-1.61h1.8v-2.78l2.06-.55Z"/><path d="M620.26,532.32c0,4.3-2.98,6.17-5.78,6.17-3.14,0-5.57-2.3-5.57-5.98,0-3.89,2.54-6.17,5.76-6.17s5.59,2.42,5.59,5.98Zm-9.22,.12c0,2.54,1.46,4.46,3.53,4.46s3.53-1.9,3.53-4.51c0-1.97-.98-4.46-3.48-4.46s-3.58,2.3-3.58,4.51Z"/><path d="M638.02,526.61c-.05,.84-.1,1.78-.1,3.19v6.74c0,2.66-.53,4.3-1.66,5.3-1.13,1.06-2.76,1.39-4.22,1.39s-2.93-.34-3.86-.96l.53-1.61c.77,.48,1.97,.91,3.41,.91,2.16,0,3.74-1.13,3.74-4.06v-1.3h-.05c-.65,1.08-1.9,1.94-3.7,1.94-2.88,0-4.94-2.45-4.94-5.66,0-3.94,2.57-6.17,5.23-6.17,2.02,0,3.12,1.06,3.62,2.02h.05l.1-1.75h1.85Zm-2.18,4.58c0-.36-.02-.67-.12-.96-.38-1.22-1.42-2.23-2.95-2.23-2.02,0-3.46,1.7-3.46,4.39,0,2.28,1.15,4.18,3.43,4.18,1.3,0,2.47-.82,2.93-2.16,.12-.36,.17-.77,.17-1.13v-2.09Z"/><path d="M642.6,532.8c.05,2.86,1.87,4.03,3.98,4.03,1.51,0,2.42-.26,3.22-.6l.36,1.51c-.74,.34-2.02,.72-3.86,.72-3.58,0-5.71-2.35-5.71-5.86s2.06-6.26,5.45-6.26c3.79,0,4.8,3.34,4.8,5.47,0,.43-.05,.77-.07,.98h-8.16Zm6.19-1.51c.02-1.34-.55-3.43-2.93-3.43-2.14,0-3.07,1.97-3.24,3.43h6.17Z"/><path d="M655.99,523.27v3.34h3.02v1.61h-3.02v6.26c0,1.44,.41,2.26,1.58,2.26,.55,0,.96-.07,1.22-.14l.1,1.58c-.41,.17-1.06,.29-1.87,.29-.98,0-1.78-.31-2.28-.89-.6-.62-.82-1.66-.82-3.02v-6.34h-1.8v-1.61h1.8v-2.78l2.06-.55Z"/><path d="M666.7,538.23v-10.01h-1.63v-1.61h1.63v-.55c0-1.63,.36-3.12,1.34-4.06,.79-.77,1.85-1.08,2.83-1.08,.74,0,1.39,.17,1.8,.34l-.29,1.63c-.31-.14-.74-.26-1.34-.26-1.8,0-2.26,1.58-2.26,3.36v.62h2.81v1.61h-2.81v10.01h-2.09Z"/><path d="M673.49,530.23c0-1.37-.02-2.54-.1-3.62h1.85l.07,2.28h.1c.53-1.56,1.8-2.54,3.22-2.54,.24,0,.41,.02,.6,.07v1.99c-.22-.05-.43-.07-.72-.07-1.49,0-2.54,1.13-2.83,2.71-.05,.29-.1,.62-.1,.98v6.19h-2.09v-7.99Z"/><path d="M691.61,532.32c0,4.3-2.98,6.17-5.78,6.17-3.14,0-5.57-2.3-5.57-5.98,0-3.89,2.54-6.17,5.76-6.17s5.59,2.42,5.59,5.98Zm-9.22,.12c0,2.54,1.46,4.46,3.53,4.46s3.53-1.9,3.53-4.51c0-1.97-.98-4.46-3.48-4.46s-3.58,2.3-3.58,4.51Z"/><path d="M694.27,529.75c0-1.2-.02-2.18-.1-3.14h1.85l.1,1.87h.07c.65-1.1,1.73-2.14,3.65-2.14,1.58,0,2.78,.96,3.29,2.33h.05c.36-.65,.82-1.15,1.3-1.51,.7-.53,1.46-.82,2.57-.82,1.54,0,3.82,1.01,3.82,5.04v6.84h-2.06v-6.58c0-2.23-.82-3.58-2.52-3.58-1.2,0-2.14,.89-2.5,1.92-.1,.29-.17,.67-.17,1.06v7.18h-2.06v-6.96c0-1.85-.82-3.19-2.42-3.19-1.32,0-2.28,1.06-2.62,2.11-.12,.31-.17,.67-.17,1.03v7.01h-2.06v-8.47Z"/><path d="M719.45,522.26c1.27-.19,2.78-.34,4.44-.34,3,0,5.14,.7,6.55,2.02,1.44,1.32,2.28,3.19,2.28,5.81s-.82,4.8-2.33,6.29c-1.51,1.51-4.01,2.33-7.15,2.33-1.49,0-2.74-.07-3.79-.19v-15.91Zm2.09,14.31c.53,.1,1.3,.12,2.11,.12,4.46,0,6.89-2.5,6.89-6.86,.02-3.82-2.14-6.24-6.55-6.24-1.08,0-1.9,.1-2.45,.22v12.77Z"/><path d="M749.26,529.97c0,5.57-3.38,8.52-7.51,8.52s-7.27-3.31-7.27-8.21c0-5.14,3.19-8.5,7.51-8.5s7.27,3.38,7.27,8.18Zm-12.55,.26c0,3.46,1.87,6.55,5.16,6.55s5.18-3.05,5.18-6.72c0-3.22-1.68-6.58-5.16-6.58s-5.18,3.19-5.18,6.74Z"/><path d="M754.06,522.05v16.18h-2.09v-16.18h2.09Z"/><path d="M765.26,523.27v3.34h3.02v1.61h-3.02v6.26c0,1.44,.41,2.26,1.58,2.26,.55,0,.96-.07,1.22-.14l.1,1.58c-.41,.17-1.06,.29-1.87,.29-.98,0-1.78-.31-2.28-.89-.6-.62-.82-1.66-.82-3.02v-6.34h-1.8v-1.61h1.8v-2.78l2.06-.55Z"/><path d="M781.03,532.32c0,4.3-2.98,6.17-5.78,6.17-3.14,0-5.57-2.3-5.57-5.98,0-3.89,2.54-6.17,5.76-6.17s5.59,2.42,5.59,5.98Zm-9.22,.12c0,2.54,1.46,4.46,3.53,4.46s3.53-1.9,3.53-4.51c0-1.97-.98-4.46-3.48-4.46s-3.58,2.3-3.58,4.51Z"/><path d="M798.82,521.18v14.04c0,1.03,.02,2.21,.1,3h-1.9l-.1-2.02h-.05c-.65,1.3-2.06,2.28-3.96,2.28-2.81,0-4.97-2.38-4.97-5.9-.02-3.86,2.38-6.24,5.21-6.24,1.78,0,2.98,.84,3.5,1.78h.05v-6.94h2.11Zm-2.11,10.15c0-.26-.02-.62-.1-.89-.31-1.34-1.46-2.45-3.05-2.45-2.18,0-3.48,1.92-3.48,4.49,0,2.35,1.15,4.3,3.43,4.3,1.42,0,2.71-.94,3.1-2.52,.07-.29,.1-.58,.1-.91v-2.02Z"/><path d="M808.75,538.23l-.17-1.46h-.07c-.65,.91-1.9,1.73-3.55,1.73-2.35,0-3.55-1.66-3.55-3.34,0-2.81,2.5-4.34,6.98-4.32v-.24c0-.96-.26-2.69-2.64-2.69-1.08,0-2.21,.34-3.02,.86l-.48-1.39c.96-.62,2.35-1.03,3.82-1.03,3.55,0,4.42,2.42,4.42,4.75v4.34c0,1.01,.05,1.99,.19,2.78h-1.92Zm-.31-5.93c-2.3-.05-4.92,.36-4.92,2.62,0,1.37,.91,2.02,1.99,2.02,1.51,0,2.47-.96,2.81-1.94,.07-.22,.12-.46,.12-.67v-2.02Z"/><path d="M816.33,523.27v3.34h3.02v1.61h-3.02v6.26c0,1.44,.41,2.26,1.58,2.26,.55,0,.96-.07,1.22-.14l.1,1.58c-.41,.17-1.06,.29-1.87,.29-.98,0-1.78-.31-2.28-.89-.6-.62-.82-1.66-.82-3.02v-6.34h-1.8v-1.61h1.8v-2.78l2.06-.55Z"/><path d="M828.17,538.23l-.17-1.46h-.07c-.65,.91-1.9,1.73-3.55,1.73-2.35,0-3.55-1.66-3.55-3.34,0-2.81,2.5-4.34,6.98-4.32v-.24c0-.96-.26-2.69-2.64-2.69-1.08,0-2.21,.34-3.02,.86l-.48-1.39c.96-.62,2.35-1.03,3.82-1.03,3.55,0,4.42,2.42,4.42,4.75v4.34c0,1.01,.05,1.99,.19,2.78h-1.92Zm-.31-5.93c-2.3-.05-4.92,.36-4.92,2.62,0,1.37,.91,2.02,1.99,2.02,1.51,0,2.47-.96,2.81-1.94,.07-.22,.12-.46,.12-.67v-2.02Z"/><path d="M832.89,537c0-.86,.6-1.49,1.42-1.49,.86,0,1.42,.62,1.42,1.49s-.55,1.49-1.42,1.49-1.42-.65-1.42-1.49Zm.6-3.43l-.34-11.52h2.3l-.34,11.52h-1.63Z"/></g><path class="d" d="M493.13,175.22l45.01,49.01c.05,.05,.1,.1,.15,.14l32.74,29.25c1.26,1.13,3.27,.36,3.46-1.33l6.33-58.3c0-.08,.02-.17,.04-.25,2.62-11.81,8.22-18.72,20.36-18.88,13.11-.17,17.76,8.37,19.42,20.7,.01,.09,.02,.18,.02,.27l.8,48.03c0,.06,0,.12,.01,.18,1.28,12.47,6.86,45.15,6.86,60.16,0,46.62-33.7,77.3-84.48,80.11-44.23,2.44-55.09-26.4-81.4-37.73h0l-71.36-36.17c-8.12-3.74-11.16-14.75-7.53-22.65,3.61-7.84,13.37-9.37,22.82-7.36,.14,.03,.28,.08,.41,.13l70.18,30.18c.27,.12-78.19-47.33-78.19-47.33-12.61-7.07-12.18-17.64-7.69-25.37,4.49-7.74,18.33-8.47,27.01-3.43,0,0,82.04,50.2,81.61,49.89l-81.97-64.99c-9.21-7.73-10.76-21.16-5.49-28.4s17.61-6.84,25.72-.94c0,0,0,0,0,0l85.49,68.39c.15,.13,.12,.16,0,0l-62.83-66.48s-.01-.01-.02-.02c-6.42-8.06-6.42-20.58,.96-25.64,8.12-5.57,18.76-5.32,31.55,8.83,0,0,.01,.01,.02,.02l-.02-.02Z"/><path class="c" d="M787.61,175.22l-45.01,49.01c-.05,.05-.1,.1-.15,.14l-32.74,29.25c-1.26,1.13-3.27,.36-3.46-1.33l-6.33-58.3c0-.08-.02-.17-.04-.25-2.62-11.81-8.22-18.72-20.36-18.88-13.11-.17-17.76,8.37-19.42,20.7-.01,.09-.02,.18-.02,.27l-.8,48.03c0,.06,0,.12-.01,.18-1.28,12.47-6.86,45.15-6.86,60.16,0,46.62,33.7,77.3,84.48,80.11,44.23,2.44,55.09-26.4,81.4-37.73h0l71.36-36.17c8.12-3.74,11.16-14.75,7.53-22.65-3.61-7.84-13.37-9.37-22.82-7.36-.14,.03-.28,.08-.41,.13l-70.18,30.18c-.27,.12,78.19-47.33,78.19-47.33,12.61-7.07,12.18-17.64,7.69-25.37-4.49-7.74-18.33-8.47-27.01-3.43,0,0-82.04,50.2-81.61,49.89l81.97-64.99c9.21-7.73,10.76-21.16,5.49-28.4-5.26-7.23-17.61-6.84-25.72-.94,0,0,0,0,0,0l-85.49,68.39c-.15,.13-.12,.16,0,0l62.83-66.48s.01-.01,.02-.02c6.42-8.06,6.42-20.58-.96-25.64-8.12-5.57-18.76-5.32-31.55,8.83,0,0-.01,.01-.02,.02l.02-.02Z"/></svg>
